<?xml version="1.0" standalone="no"?>
<!DOCTYPE svg PUBLIC "-//W3C//DTD SVG 20010904//EN"
 "http://www.w3.org/TR/2001/REC-SVG-20010904/DTD/svg10.dtd">
<svg version="1.0" xmlns="http://www.w3.org/2000/svg"
 width="337.000000pt" height="97.000000pt" viewBox="0 0 337.000000 97.000000"
 preserveAspectRatio="xMidYMid meet">

<g transform="translate(0.000000,97.000000) scale(0.100000,-0.100000)"
fill="#000000" stroke="none">
<path d="M0 490 l0 -480 1625 0 1625 0 0 480 0 480 -1625 0 -1625 0 0 -480z
m3220 0 l0 -450 -1595 0 -1595 0 0 450 0 450 1595 0 1595 0 0 -450z"/>
<path d="M100 490 l0 -390 855 0 855 0 0 390 0 390 -855 0 -855 0 0 -390z
m380 125 c0 -12 -13 -15 -60 -15 l-60 0 0 -40 0 -40 55 0 c42 0 55 -3 55 -15
0 -12 -13 -15 -55 -15 l-55 0 0 -45 0 -45 65 0 c51 0 65 -3 65 -15 0 -12 -16
-15 -85 -15 l-85 0 0 130 0 130 80 0 c64 0 80 -3 80 -15z m142 -90 c22 -55 41
-101 43 -103 1 -1 20 43 41 99 34 90 55 122 70 106 3 -2 -17 -60 -45 -128 -36
-91 -53 -124 -66 -124 -12 0 -29 30 -61 109 -59 148 -59 149 -39 144 11 -2 31
-38 57 -103z m398 90 c0 -12 -14 -15 -65 -15 l-65 0 0 -40 0 -40 60 0 c47 0
60 -3 60 -15 0 -12 -13 -15 -60 -15 l-60 0 0 -45 0 -45 65 0 c51 0 65 -3 65
-15 0 -12 -16 -15 -80 -15 l-80 0 0 130 0 130 80 0 c64 0 80 -3 80 -15z m191
-80 c35 -52 67 -95 72 -95 4 0 7 43 7 95 0 78 3 95 15 95 13 0 15 -21 15 -131
0 -163 -6 -164 -105 -24 l-70 100 -3 -102 c-2 -83 -6 -103 -17 -103 -12 0 -15
22 -15 130 0 167 9 170 101 35z m399 80 c0 -11 -12 -15 -45 -15 l-45 0 0 -115
c0 -96 -3 -115 -15 -115 -12 0 -15 19 -15 115 l0 115 -45 0 c-33 0 -45 4 -45
15 0 12 18 15 105 15 87 0 105 -3 105 -15z"/>
<path d="M2033 618 c-31 -15 -46 -58 -34 -91 10 -25 24 -34 104 -66 16 -6 27
-17 25 -24 -7 -19 -47 -21 -54 -3 -4 11 -19 16 -46 16 -36 0 -39 -2 -33 -22
14 -47 41 -63 104 -63 73 0 101 20 101 75 0 45 -20 66 -81 83 -51 15 -68 47
-24 47 14 0 28 -7 31 -15 4 -9 19 -15 40 -15 43 0 45 21 5 61 -24 23 -38 29
-73 28 -24 0 -53 -5 -65 -11z"/>
<path d="M2230 620 c0 -6 20 -46 45 -90 34 -60 45 -90 45 -122 0 -42 1 -43 32
-42 32 1 33 3 38 50 4 31 21 76 48 125 23 42 42 79 42 82 0 4 -18 7 -40 7 -37
0 -41 -3 -64 -47 l-24 -48 -23 48 c-21 44 -26 47 -61 47 -21 0 -38 -5 -38 -10z"/>
<path d="M2520 498 l0 -133 32 1 33 1 5 63 5 64 44 -60 c24 -32 45 -61 47 -62
1 -2 16 -5 33 -6 l31 -2 0 133 0 133 -35 0 -34 0 -3 -67 -3 -68 -49 68 c-41
55 -55 67 -78 67 l-28 0 0 -132z"/>
<path d="M2859 615 c-89 -48 -85 -196 6 -239 73 -35 165 -5 192 62 l13 32 -38
0 c-26 0 -45 -7 -57 -20 -10 -11 -29 -20 -42 -20 -29 0 -63 33 -63 63 0 59 70
90 107 47 21 -25 83 -28 83 -5 0 25 -30 65 -61 81 -35 18 -106 18 -140 -1z"/>
</g>
</svg>
